<svg xmlns="http://www.w3.org/2000/svg" version="1.1" xmlns:xlink="http://www.w3.org/1999/xlink" xmlns:svgjs="http://svgjs.dev/svgjs" width="1000" height="1125" viewBox="0 0 1000 1125"><g transform="matrix(1,0,0,1,0.0011008540699322111,0)"><svg viewBox="0 0 320 360" data-background-color="#000000" preserveAspectRatio="xMidYMid meet" height="1125" width="1000" xmlns="http://www.w3.org/2000/svg" xmlns:xlink="http://www.w3.org/1999/xlink"><g id="tight-bounds" transform="matrix(1,0,0,1,0.00010353528136874957,0)"><svg viewBox="0 0 320 360" height="360" width="320"><g><svg></svg></g><g><svg viewBox="0 0 320 360" height="360" width="320"><g><path d="M307.925 179.999l6.575-11.387c11.322-19.607 4.604-44.679-15.003-56.001l-11.387-6.575v-13.151c0-22.639-18.354-40.994-40.994-40.994h-13.151l-6.575-11.387c-11.322-19.607-36.393-26.325-56.001-15.003l-11.39 6.572-11.387-6.576c-19.607-11.318-44.679-4.6-56.001 15.007l-6.575 11.387h-13.151c-22.639 0-40.994 18.354-40.994 40.994v13.151l-11.387 6.575c-19.607 11.322-26.325 36.393-15.003 56.001l6.572 11.387-6.576 11.387c-11.318 19.607-4.6 44.679 15.007 56l11.387 6.576v13.15c0 22.639 18.354 40.994 40.994 40.994h13.151l6.575 11.387c11.322 19.607 36.393 26.325 56.001 15.003l11.387-6.571 11.387 6.575c19.607 11.322 44.679 4.604 56-15.003l6.576-11.387h13.15c22.639 0 40.994-18.354 40.994-40.994v-13.151l11.387-6.575c19.607-11.322 26.325-36.393 15.003-56.001zM297.702 115.716c8.655 4.996 14.842 13.062 17.428 22.713 2.586 9.65 1.261 19.734-3.735 28.384l-5.538 9.596-17.747-30.74v-35.494zM251.155 271.155l-57.791 33.365h-66.731l-57.791-33.365-33.365-57.791v-66.731l33.365-57.791 57.791-33.365h66.731l57.791 33.365 33.365 57.791v66.731zM284.517 220.539v31.351l-27.151 15.676zM247.566 277.366l-15.676 27.151h-31.351zM187.15 308.106l-27.151 15.676-27.151-15.676zM119.459 304.517h-31.352l-15.676-27.151zM62.632 267.566l-27.151-15.676v-31.351zM31.891 207.15l-15.675-27.151 15.675-27.151zM35.481 139.459v-31.352l27.151-15.676zM72.431 82.632l15.676-27.151h31.352zM132.848 51.891l27.151-15.675 27.151 15.675zM200.539 55.481h31.351l15.676 27.151zM257.366 92.431l27.151 15.676v31.352zM288.106 152.848l15.676 27.151-15.676 27.151zM247.112 55.481c9.992 0 19.384 3.889 26.452 10.956 7.063 7.063 10.956 16.46 10.957 26.452v11.079l-30.741-17.747-17.747-30.74zM173.18 28.606c8.655-4.996 18.735-6.322 28.385-3.735 9.65 2.586 17.716 8.777 22.712 17.428l5.538 9.596h-35.494l-30.741-17.747zM95.716 42.295c4.996-8.655 13.062-14.842 22.713-17.428 9.65-2.586 19.734-1.261 28.384 3.736l9.596 5.537-30.74 17.747h-35.494zM35.481 92.885c0-9.992 3.889-19.384 10.956-26.452 7.063-7.063 16.46-10.956 26.452-10.956h11.079l-17.747 30.74-30.74 17.747zM8.606 166.817c-4.996-8.655-6.322-18.735-3.735-28.385 2.586-9.65 8.777-17.716 17.428-22.712l9.596-5.538v35.495l-17.747 30.74zM22.295 244.281c-8.655-4.996-14.842-13.062-17.428-22.712-2.586-9.65-1.261-19.734 3.736-28.385l5.537-9.596 17.747 30.74v35.495zM72.885 304.517c-9.992 0-19.384-3.889-26.452-10.957-7.063-7.063-10.956-16.46-10.956-26.451v-11.08l30.74 17.747 17.747 30.741zM146.817 331.391c-8.655 4.996-18.735 6.322-28.385 3.735-9.65-2.586-17.716-8.777-22.712-17.428l-5.538-9.596h35.495l30.74 17.747zM224.281 317.702c-4.996 8.655-13.062 14.842-22.712 17.428-9.65 2.586-19.734 1.261-28.385-3.735l-9.596-5.538 30.74-17.747h35.495zM284.517 267.112c0 9.992-3.889 19.384-10.957 26.452-7.063 7.063-16.46 10.956-26.451 10.957h-11.08l17.747-30.741 30.741-17.747zM315.13 221.565c-2.586 9.65-8.777 17.716-17.428 22.712l-9.596 5.538v-35.494l17.747-30.741 5.538 9.596c4.996 8.658 6.326 18.739 3.739 28.389z" fill="#89939e" fill-rule="nonzero" stroke="none" stroke-width="1" stroke-linecap="butt" stroke-linejoin="miter" stroke-miterlimit="10" stroke-dasharray="" stroke-dashoffset="0" font-family="none" font-weight="none" font-size="none" text-anchor="none" style="mix-blend-mode: normal" data-fill-palette-color="tertiary"></path></g><g transform="matrix(1,0,0,1,64.00000000000001,125.51196172248805)"><svg viewBox="0 0 191.99999999999997 108.97607655502391" height="108.97607655502391" width="191.99999999999997"><g><svg viewBox="0 0 191.99999999999997 108.97607655502391" height="108.97607655502391" width="191.99999999999997"><g><svg viewBox="0 0 191.99999999999997 108.97607655502391" height="108.97607655502391" width="191.99999999999997"><g><svg viewBox="0 0 191.99999999999997 108.97607655502391" height="108.97607655502391" width="191.99999999999997"><g id="textblocktransform"><svg viewBox="0 0 191.99999999999997 108.97607655502391" height="108.97607655502391" width="191.99999999999997" id="textblock"><g><svg viewBox="0 0 191.99999999999997 108.97607655502391" height="108.97607655502391" width="191.99999999999997"><g transform="matrix(1,0,0,1,0,0)"><svg width="191.99999999999997" viewBox="-1.5 -39.5 84.6 48.45" height="108.97607655502391" data-palette-color="#89939e"><path d="M14.25-15.15L14.25-15.15 14.25-13.6 33.75-13.6 33.75-15.15Q33.75-16.5 33.52-17.65 33.3-18.8 32.95-19.8L32.95-19.8 29.5-27.95Q28.95-29.25 28.35-30.13 27.75-31 26.35-31L26.35-31 21.45-31Q19.95-31 19.35-30.13 18.75-29.25 18.25-28L18.25-28 15.05-19.8Q14.7-18.8 14.48-17.65 14.25-16.5 14.25-15.15ZM19.9-17.9L22.25-25.5Q22.45-25.95 22.68-26.15 22.9-26.35 23.2-26.35L23.2-26.35 24.45-26.35Q24.75-26.35 24.98-26.15 25.2-25.95 25.4-25.5L25.4-25.5 27.75-17.9 19.9-17.9ZM34.25-4.5L33.75-4.5 33.75-13.1 14.25-13.1 14.25-4.5 13.75-4.5 13.75-15.15Q13.75-16.55 13.98-17.73 14.2-18.9 14.6-20L14.6-20 17.8-28.2Q18.35-29.6 19.05-30.55 19.75-31.5 21.45-31.5L21.45-31.5 26.35-31.5Q28-31.5 28.68-30.55 29.35-29.6 29.95-28.15L29.95-28.15 33.4-20Q33.8-18.9 34.02-17.73 34.25-16.55 34.25-15.15L34.25-15.15 34.25-4.5ZM19.4-1.8L19.4-1.8 19.4-8.8 28.25-8.8 28.25-1.8Q28.25-0.85 28.73-0.43 29.2 0 30.2 0L30.2 0 37.75 0Q38.7 0 39.13-0.43 39.55-0.85 39.55-1.8L39.55-1.8 39.55-15Q39.55-16.5 39.08-18.45 38.6-20.4 37.6-23L37.6-23 33.25-34.35Q32.95-35.2 32.33-35.6 31.7-36 30.75-36L30.75-36 17.3-36Q16.3-36 15.68-35.6 15.05-35.2 14.75-34.35L14.75-34.35 10.4-23Q9.4-20.4 8.93-18.45 8.45-16.5 8.45-15L8.45-15 8.45-1.8Q8.45-0.85 8.88-0.43 9.3 0 10.25 0L10.25 0 17.6 0Q18.55 0 18.98-0.43 19.4-0.85 19.4-1.8ZM19.2 0.05L12.7 5.45Q12.5 5.65 12.08 5.8 11.65 5.95 11.15 5.95L11.15 5.95 3.8 5.95Q2.6 5.95 2.05 5.4 1.5 4.85 1.5 3.65L1.5 3.65 1.5-9.55Q1.5-11.1 1.98-13.08 2.45-15.05 3.5-17.75L3.5-17.75 7.8-29.05Q7.95-29.5 8.18-29.83 8.4-30.15 8.65-30.4L8.65-30.4 8.7-30.45 15.1-35.8Q15.5-36.15 16.05-36.33 16.6-36.5 17.3-36.5L17.3-36.5 30.75-36.5Q31.9-36.5 32.63-36.02 33.35-35.55 33.7-34.55L33.7-34.55 38.05-23.2Q39.1-20.5 39.58-18.53 40.05-16.55 40.05-15L40.05-15 40.05-1.8Q40.05-1.15 39.88-0.7 39.7-0.25 39.35 0.05L39.35 0.05 32.85 5.45Q32.65 5.65 32.23 5.8 31.8 5.95 31.3 5.95L31.3 5.95 23.75 5.95Q22.5 5.95 21.9 5.38 21.3 4.8 21.3 3.65L21.3 3.65 21.3-2.85 19.9-2.85 19.9-1.8Q19.9-1.15 19.73-0.7 19.55-0.25 19.2 0.05L19.2 0.05ZM53.8 5.95L53.8 5.95 46.05 5.95Q44.85 5.95 44.3 5.4 43.75 4.85 43.75 3.65L43.75 3.65 43.75-28.75Q43.75-29.4 43.92-29.85 44.1-30.3 44.45-30.6L44.45-30.6 50.9-36.05Q51.15-36.25 51.57-36.38 52-36.5 52.5-36.5L52.5-36.5 67.8-36.5Q71.35-36.5 73.75-35.75 76.15-35 77.55-33.65 78.95-32.3 79.52-30.4 80.1-28.5 80.1-26.25L80.1-26.25 80.1-19.85Q80.1-17.45 79.42-15.48 78.75-13.5 77.1-12.1L77.1-12.1 70.6-6.7Q69.35-5.65 67.37-4.98 65.4-4.3 62.55-4.2L62.55-4.2 62.55-1.8Q62.55-1.15 62.37-0.7 62.2-0.25 61.85 0.05L61.85 0.05 55.35 5.45Q55.15 5.65 54.72 5.8 54.3 5.95 53.8 5.95ZM52.5 0L60.25 0Q61.2 0 61.62-0.43 62.05-0.85 62.05-1.8L62.05-1.8 62.05-10.1 67.8-10.1Q74.6-10.1 77.1-12.8 79.6-15.5 79.6-19.85L79.6-19.85 79.6-26.25Q79.6-30.6 77.1-33.3 74.6-36 67.8-36L67.8-36 52.5-36Q51.55-36 51.12-35.58 50.7-35.15 50.7-34.2L50.7-34.2 50.7-1.8Q50.7-0.85 51.12-0.43 51.55 0 52.5 0L52.5 0ZM67.1-14.35L67.1-14.35 56.8-14.35 56.8-4.5 56.3-4.5 56.3-31.5 67.1-31.5Q69.45-31.5 70.92-30.98 72.4-30.45 73.2-29.55 74-28.65 74.3-27.4 74.6-26.15 74.6-24.7L74.6-24.7 74.6-21Q74.6-19.55 74.3-18.32 74-17.1 73.2-16.23 72.4-15.35 70.92-14.85 69.45-14.35 67.1-14.35ZM56.8-31L56.8-14.85 67.1-14.85Q69.3-14.85 70.67-15.3 72.05-15.75 72.8-16.57 73.55-17.4 73.82-18.53 74.1-19.65 74.1-21L74.1-21 74.1-24.7Q74.1-26.05 73.82-27.2 73.55-28.35 72.8-29.2 72.05-30.05 70.67-30.53 69.3-31 67.1-31L67.1-31 56.8-31ZM61.95-19.1L61.95-26.65 66.45-26.65Q67.9-26.65 68.35-25.9 68.8-25.15 68.8-24.2L68.8-24.2 68.8-21.55Q68.8-20.6 68.35-19.85 67.9-19.1 66.45-19.1L66.45-19.1 61.95-19.1Z" opacity="1" transform="matrix(1,0,0,1,0,0)" fill="#89939e" class="wordmark-text-0" data-fill-palette-color="primary" id="text-0"></path></svg></g></svg></g></svg></g></svg></g></svg></g></svg></g></svg></g></svg></g><defs></defs></svg><rect width="320" height="360" fill="none" stroke="none" visibility="hidden"></rect></g></svg></g></svg>